<svg width="33" height="28" viewBox="0 0 33 28" fill="none" xmlns="http://www.w3.org/2000/svg">
<path opacity="0.2" d="M31.6919 9.21144C28.5101 10.2072 25.3868 11.3811 22.3367 12.7274C25.2006 10.6021 28.0642 8.47625 30.9275 6.34995C31.1186 6.21442 31.2496 6.00993 31.2928 5.77964C31.336 5.54936 31.2881 5.3113 31.1591 5.11571C31.0301 4.92013 30.8301 4.78232 30.6014 4.73137C30.3727 4.68043 30.1332 4.72032 29.9333 4.84266C24.6709 7.72607 19.4076 10.6069 14.1434 13.4852C18.7372 10.216 23.4053 7.05217 28.1477 3.99369C28.94 3.48267 28.3257 2.09355 27.4103 2.46339C21.6667 4.78139 16.0356 7.34811 10.517 10.1635C13.9719 7.17751 17.4199 4.18331 20.861 1.18094C21.5409 0.585673 20.5815 -0.261055 19.9068 0.0775887C13.3326 3.37762 6.7704 6.70096 0.220245 10.0476C-0.269705 10.2991 0.140613 11.1691 0.644396 10.9306C5.62506 8.57249 10.5957 6.19349 15.5564 3.79359C11.8258 6.99136 8.10115 10.196 4.38236 13.4076C4.21732 13.5261 4.10458 13.704 4.06774 13.9039C4.03089 14.1037 4.07279 14.3101 4.18468 14.4797C4.29657 14.6494 4.46977 14.7691 4.66799 14.814C4.86621 14.8588 5.07406 14.8252 5.24805 14.7202C9.87248 12.1964 14.5868 9.85777 19.391 7.7043C13.766 11.5222 8.25869 15.5057 2.86896 19.6547C2.68448 19.7856 2.55803 19.983 2.51633 20.2053C2.47463 20.4275 2.52094 20.6573 2.64547 20.8461C2.76999 21.0349 2.963 21.168 3.18375 21.2171C3.40451 21.2663 3.63575 21.2278 3.82864 21.1097C9.04398 18.2636 14.2613 15.4216 19.4807 12.5838C17.0272 14.4021 14.5732 16.2199 12.1186 18.037C11.9163 18.1705 11.7753 18.3789 11.7266 18.6164C11.6779 18.8538 11.7256 19.1009 11.8591 19.3033C11.9925 19.5056 12.201 19.6466 12.4384 19.6953C12.6759 19.744 12.923 19.6963 13.1253 19.5628C17.6229 16.8473 22.3587 14.5476 27.274 12.6923C22.7073 16.3091 18.0473 19.8029 13.2939 23.1738C12.4641 23.7618 13.088 25.3239 14.1107 24.8701C17.7909 23.2367 21.4724 21.6059 25.155 19.9777C23.6209 21.9981 21.8346 23.814 19.8396 25.3811C19.0012 26.0385 19.5731 27.5832 20.7008 27.1697C22.6208 26.4658 24.565 25.8404 26.5333 25.2935C27.8028 24.9407 27.1675 22.9833 25.9003 23.3456C25.4345 23.4791 24.9702 23.617 24.5074 23.7591C26.1088 22.0512 27.5216 20.1758 28.7216 18.1655C29.1304 17.4805 28.3222 16.4601 27.5581 16.8024C25.5564 17.6985 23.5536 18.5922 21.5497 19.4835C25.2574 16.6907 28.9047 13.8197 32.4914 10.8705C33.2629 10.2351 32.7559 8.87771 31.6919 9.21144Z" fill="#007D58"/>
</svg>
