<?xml version="1.0" encoding="UTF-8"?>
<svg version="1.1" xmlns="http://www.w3.org/2000/svg" width="48" height="33">
<path d="M0 0 C3.46620268 0.57517774 5.00705118 1.69305996 7.375 4.25 C10.41719852 7.43675223 13.56934676 10.23874252 17 13 C21.74995417 11.10001833 25.06939561 7.31712364 28.66601562 3.8125 C32.68527819 -0 32.68527819 -0 36 0 C36.66 2.64 37.32 5.28 38 8 C39.98 7.34 41.96 6.68 44 6 C45 7 45 7 45.25 9.375 C45 12 45 12 43.5 13.8125 C43.005 14.204375 42.51 14.59625 42 15 C42.66 15.350625 43.32 15.70125 44 16.0625 C46 18 46 18 46.875 21.25 C45.66497078 26.43583952 42.98632332 27.76903674 38.67578125 30.6171875 C36.05808166 31.96998408 33.90248934 32.59208258 31 33 C30.15545644 29.62182575 29.89155081 27.32534757 31 24 C29.35 23.01 27.7 22.02 26 21 C24.35 23.97 22.7 26.94 21 30 C19.02 30 17.04 30 15 30 C13.35 27.03 11.7 24.06 10 21 C5.78686248 23.58533439 3.01956226 26.11770566 0 30 C-0.66 30 -1.32 30 -2 30 C-2.39755352 8.99082569 -2.39755352 8.99082569 0 0 Z " fill="#01A57B" transform="translate(2,0)"/>
<path d="M0 0 C3.43338073 0.57597019 4.9666725 1.65131895 7.3125 4.1875 C10.68878805 7.72456367 14.25046038 10.86263011 18 14 C15.27323998 16.84777008 12.29291825 18.82667395 9 21 C6.15337509 23.10108029 4.02115585 24.97340408 1.8125 27.75 C0.9153125 28.86375 0.9153125 28.86375 0 30 C-0.66 30 -1.32 30 -2 30 C-2.39755352 8.99082569 -2.39755352 8.99082569 0 0 Z " fill="#02A279" transform="translate(2,0)"/>
<path d="M0 0 C0.66 0.33 1.32 0.66 2 1 C2.36923077 5.55384615 2.36923077 5.55384615 0.5 7.8125 C0.005 8.204375 -0.49 8.59625 -1 9 C-0.34 9.350625 0.32 9.70125 1 10.0625 C3 12 3 12 3.875 15.25 C2.66497078 20.43583952 -0.01367668 21.76903674 -4.32421875 24.6171875 C-6.94191834 25.96998408 -9.09751066 26.59208258 -12 27 C-12.75 24.8125 -12.75 24.8125 -13 22 C-11.0625 19.1875 -11.0625 19.1875 -9 17 C-9.66 16.443125 -10.32 15.88625 -11 15.3125 C-13 13 -13 13 -13.42578125 10.58984375 C-13 8 -13 8 -10.91796875 6.015625 C-10.01691406 5.43296875 -9.11585937 4.8503125 -8.1875 4.25 C-7.29417969 3.65703125 -6.40085937 3.0640625 -5.48046875 2.453125 C-3 1 -3 1 0 0 Z " fill="#E7A73C" transform="translate(45,6)"/>
<path d="M0 0 C7.14216045 9.358693 7.14216045 9.358693 6.828125 12.984375 C5.79823556 15.49108704 4.45105797 16.87890342 2.5 18.75 C1.55640625 19.67039062 1.55640625 19.67039062 0.59375 20.609375 C-1 22 -1 22 -2 22 C-2.23576736 14.37685526 -1.83717315 7.41430591 0 0 Z " fill="#008B69" transform="translate(2,0)"/>
<path d="M0 0 C2.33458635 3.50187953 2.67260727 4.88028047 2 9 C-1 11.375 -1 11.375 -4 13 C-3.67495741 17.82194643 -3.67495741 17.82194643 -1.4375 21.9375 C-0.7259375 22.4634375 -0.7259375 22.4634375 0 23 C-4.68091299 23 -5.62101604 22.00354129 -9 19 C-7.6077541 14.37324343 -5.70479016 10.35313769 -3.375 6.125 C-2.74335937 4.97257813 -2.11171875 3.82015625 -1.4609375 2.6328125 C-0.97882812 1.76398437 -0.49671875 0.89515625 0 0 Z " fill="#067F5F" transform="translate(37,1)"/>
<path d="M0 0 C0.66 0.33 1.32 0.66 2 1 C2.36554789 4.28993102 2.26218503 5.63099885 0.3125 8.375 C-2 10 -2 10 -4.75 9.75 C-5.4925 9.5025 -6.235 9.255 -7 9 C-7 8.01 -7 7.02 -7 6 C-7.66 5.67 -8.32 5.34 -9 5 C-3.375 1.125 -3.375 1.125 0 0 Z " fill="#E79A26" transform="translate(45,6)"/>
<path d="M0 0 C3.23861303 1.44424635 5.61969163 3.25772247 8.25 5.625 C8.95640625 6.25664063 9.6628125 6.88828125 10.390625 7.5390625 C10.92171875 8.02117188 11.4528125 8.50328125 12 9 C10.60804085 11.7839183 8.84424221 11.97898997 6 13 C4.99491199 11.21118264 3.99607264 9.41885304 3 7.625 C2.1646875 6.12839844 2.1646875 6.12839844 1.3125 4.6015625 C0 2 0 2 0 0 Z " fill="#20A787" transform="translate(3,0)"/>
<path d="M0 0 C0.33 1.98 0.66 3.96 1 6 C-2.465 7.485 -2.465 7.485 -6 9 C-6.66 8.34 -7.32 7.68 -8 7 C-7.625 4.375 -7.625 4.375 -7 2 C-1.125 0 -1.125 0 0 0 Z " fill="#EF8F1F" transform="translate(40,24)"/>
<path d="M0 0 C0.99 0.33 1.98 0.66 3 1 C-1.11378556 9.50765864 -1.11378556 9.50765864 -4.8125 11.5625 C-5.534375 11.706875 -6.25625 11.85125 -7 12 C-7.4375 9.9375 -7.4375 9.9375 -7 7 C-4.87919817 4.42739828 -2.49372439 2.20745501 0 0 Z " fill="#2BB594" transform="translate(35,0)"/>
<path d="M0 0 C2.672336 3.56311466 3.77263971 5.84585747 5 10 C1.535 11.485 1.535 11.485 -2 13 C-1.34 8.71 -0.68 4.42 0 0 Z " fill="#02614E" transform="translate(2,0)"/>
<path d="M0 0 C0 3.21338492 -0.299289 4.34070644 -2 7 C-4.1640625 8.703125 -4.1640625 8.703125 -6.625 10.25 C-7.44226563 10.77078125 -8.25953125 11.2915625 -9.1015625 11.828125 C-10.04128906 12.40820312 -10.04128906 12.40820312 -11 13 C-11.33 11.68 -11.66 10.36 -12 9 C-11.38511719 8.60167969 -10.77023437 8.20335937 -10.13671875 7.79296875 C-9.32847656 7.26316406 -8.52023438 6.73335937 -7.6875 6.1875 C-6.88699219 5.66542969 -6.08648437 5.14335937 -5.26171875 4.60546875 C-3.2762598 3.19610151 -1.6508148 1.77903343 0 0 Z " fill="#007057" transform="translate(24,10)"/>
<path d="M0 0 C1.32 0.33 2.64 0.66 4 1 C4 2.98 4 4.96 4 7 C2.68 7.33 1.36 7.66 0 8 C-0.33 6.68 -0.66 5.36 -1 4 C-1.99 4 -2.98 4 -4 4 C-2.68 3.34 -1.36 2.68 0 2 C0 1.34 0 0.68 0 0 Z " fill="#ECA033" transform="translate(40,21)"/>
<path d="M0 0 C0.25 2.25 0.25 2.25 0 5 C-2 7.3125 -2 7.3125 -4 9 C-4.66 8.67 -5.32 8.34 -6 8 C-2.8 -0 -2.8 -0 0 0 Z " fill="#069371" transform="translate(28,8)"/>
<path d="M0 0 C2.86697492 1.28519565 4.97607712 2.57129254 7 5 C7 5.66 7 6.32 7 7 C5.35 6.67 3.7 6.34 2 6 C1.34 4.02 0.68 2.04 0 0 Z " fill="#3EBCA0" transform="translate(3,0)"/>
<path d="M0 0 C-1.45255699 3.82946843 -3.42895561 5.12050295 -7 7 C-6.75 4.625 -6.75 4.625 -6 2 C-3.84898936 0.54286376 -2.59713506 0 0 0 Z " fill="#00795D" transform="translate(7,10)"/>
</svg>
