<svg width="70" height="50" viewBox="0 0 70 50" fill="none" xmlns="http://www.w3.org/2000/svg">
<g opacity="0.81">
<path d="M61.7884 1.41161C62.7714 0.522209 64.062 0.0195025 65.4503 0.0195025C67.0561 7.64385 68.3993 16.0803 69.2022 25.2256C69.9826 34.1325 70.1327 42.4272 69.9 49.9871L68.2342 49.9999C67.3787 50.0063 66.5834 49.6326 66.1707 49.0268C63.8294 45.6367 60.3702 41.4539 55.3277 37.2841C47.9289 31.1614 40.2525 27.6553 35.0299 25.7026L61.7884 1.41161Z" fill="url(#paint0_linear_81_1844)"/>
<path d="M48.5383 32.3987L65.4444 0C64.0562 0 62.728 0.502707 61.745 1.39211L34.979 25.6895C38.5883 26.8883 43.4958 28.9249 48.5383 32.3987Z" fill="#007D58"/>
<path d="M61.745 1.39211L34.979 25.6895C31.3696 26.8882 26.4614 28.9248 21.4188 32.4051L29.8606 48.5818C30.3033 49.4326 31.2488 49.974 32.2918 49.974H37.6645C38.7001 49.974 39.6455 49.4326 40.0957 48.5818L65.4436 0.00641818C64.0555 -2.67522e-05 62.728 0.502712 61.745 1.39211Z" fill="url(#paint1_linear_81_1844)"/>
<path d="M61.745 1.39211L34.979 25.6895V47.5378C34.979 48.8848 36.1788 49.974 37.6645 49.974C38.7001 49.974 39.6455 49.4326 40.0957 48.5818L65.4436 0.00641818C64.0555 -2.67522e-05 62.728 0.502712 61.745 1.39211Z" fill="url(#paint2_linear_81_1844)"/>
<path d="M8.21153 1.39211C7.22856 0.502707 5.93792 0 4.54971 0C2.9439 7.62435 1.60072 16.0608 0.797816 25.2061C0.0174187 34.113 -0.132664 42.4076 0.0999544 49.9675L1.7658 49.9805C2.62123 49.9869 3.41663 49.6131 3.82935 49.0072C6.17053 45.6173 9.62979 41.4345 14.6724 37.2645C22.0711 31.1419 29.7474 27.6359 34.9701 25.683L8.21153 1.39211Z" fill="url(#paint3_linear_81_1844)"/>
<path d="M34.9773 25.6895L8.26372 1.39211C7.89605 1.05697 7.48334 0.779857 7.04062 0.560725C6.85301 0.470496 6.66543 0.386696 6.47033 0.322246C6.35027 0.283577 6.23771 0.244912 6.11765 0.206242C6.08013 0.193352 6.03511 0.186915 5.99759 0.174025C5.91504 0.15469 5.8325 0.135358 5.74995 0.116024C5.38227 0.0386844 4.99957 0 4.60937 0L21.4404 32.3987C23.1963 31.2773 25.2073 30.1107 27.4885 28.9571C30.1449 27.6165 32.6811 26.5467 34.9773 25.6895Z" fill="url(#paint4_linear_81_1844)"/>
</g>
<defs>
<linearGradient id="paint0_linear_81_1844" x1="59.2404" y1="24.2947" x2="32.8182" y2="-1.83114" gradientUnits="userSpaceOnUse">
<stop stop-color="#00A87D"/>
<stop offset="0.128" stop-color="#009570"/>
<stop offset="0.3856" stop-color="#00654F"/>
<stop offset="0.5153" stop-color="#004A3D"/>
</linearGradient>
<linearGradient id="paint1_linear_81_1844" x1="45.8903" y1="26.6647" x2="38.9581" y2="13.8697" gradientUnits="userSpaceOnUse">
<stop offset="0.2046" stop-color="#00A87D"/>
<stop offset="0.3497" stop-color="#00A379"/>
<stop offset="0.526" stop-color="#00946F"/>
<stop offset="0.7182" stop-color="#007B5F"/>
<stop offset="0.9207" stop-color="#005948"/>
<stop offset="1" stop-color="#004A3D"/>
</linearGradient>
<linearGradient id="paint2_linear_81_1844" x1="18.1328" y1="28.9031" x2="34.15" y2="-48.2291" gradientUnits="userSpaceOnUse">
<stop stop-color="#00A87D" stop-opacity="0"/>
<stop offset="0.445" stop-color="#54DCBD"/>
</linearGradient>
<linearGradient id="paint3_linear_81_1844" x1="41.5981" y1="42.5168" x2="24.0923" y2="-25.9398" gradientUnits="userSpaceOnUse">
<stop offset="0.1599" stop-color="#00A87D"/>
<stop offset="0.4457" stop-color="#006D55"/>
<stop offset="0.6333" stop-color="#004A3D"/>
</linearGradient>
<linearGradient id="paint4_linear_81_1844" x1="25.1836" y1="31.6919" x2="12.9528" y2="-26.3177" gradientUnits="userSpaceOnUse">
<stop stop-color="#00A87D" stop-opacity="0"/>
<stop offset="0.4252" stop-color="#52DCBD"/>
</linearGradient>
</defs>
</svg>
